<?xml version="1.0" encoding="UTF-8"?>
<svg version="1.1" xmlns="http://www.w3.org/2000/svg" width="170" height="41" viewBox="0 0 170 41">
<path d="M0 0 C1.96718023 -0.00679667 1.96718023 -0.00679667 3.97410148 -0.01373065 C7.59002002 -0.02589209 11.20584556 -0.02570833 14.82177985 -0.02334189 C18.73131886 -0.02293197 22.64082874 -0.03398965 26.550354 -0.04345703 C34.20152818 -0.06003119 41.85267152 -0.06556499 49.50386215 -0.06668179 C55.72821537 -0.06763413 61.95255847 -0.0717537 68.17690849 -0.07808304 C85.85040002 -0.095687 103.52386732 -0.10492343 121.19736768 -0.10342209 C122.14905992 -0.10334218 123.10075217 -0.10326227 124.08128357 -0.10317993 C125.03414723 -0.10309817 125.9870109 -0.10301641 126.96874922 -0.10293217 C142.39873604 -0.10211989 157.82862511 -0.12124509 173.25858367 -0.14945666 C189.12775343 -0.17824068 204.99687561 -0.19199387 220.86607212 -0.19026911 C229.76496985 -0.18960703 238.66376513 -0.19501902 247.56263924 -0.21662521 C255.14172694 -0.23490995 262.72066577 -0.239125 270.29976607 -0.22560637 C274.16017881 -0.21911278 278.02030657 -0.21882711 281.88069153 -0.23631287 C318.03164825 -0.38987764 318.03164825 -0.38987764 334.62498474 8.07992554 C335.3296991 8.42756958 336.03441345 8.77521362 336.76048279 9.13339233 C358.84594532 20.28409923 374.25410651 38.76859362 383.00389099 61.72055054 C390.92670843 85.9275352 389.35639317 112.05230375 378.09373474 134.93148804 C370.42382696 149.36781446 359.40362103 161.46274417 345.68748474 170.26742554 C344.7709613 170.8668396 343.85443787 171.46625366 342.91014099 172.08383179 C325.22549281 183.07442522 305.54342682 185.42932717 285.08992004 185.40113831 C283.2562154 185.40453664 283.2562154 185.40453664 281.38546622 185.40800363 C278.02264951 185.41320641 274.65988663 185.4139941 271.29706979 185.41280925 C267.65818166 185.41260394 264.01930131 185.41813638 260.38041687 185.42286682 C253.26212171 185.43114616 246.14383484 185.43392044 239.02553527 185.4344792 C233.23408495 185.4349557 227.44263735 185.43701709 221.6511879 185.44017982 C205.2010339 185.44897934 188.7508864 185.45360035 172.30073003 185.45284935 C171.4153171 185.45280939 170.52990416 185.45276944 169.61766052 185.45272827 C168.73115589 185.45268739 167.84465125 185.45264651 166.93128283 185.45260439 C152.5748337 185.45219822 138.21841082 185.46176226 123.86196928 185.47586664 C109.09114499 185.49026262 94.32033349 185.49713504 79.54950202 185.49627286 C71.26880828 185.49594198 62.98814207 185.498641 54.70745468 185.50945091 C47.65543279 185.51859848 40.60345091 185.5206965 33.55142562 185.51394149 C29.96044261 185.51069749 26.36953616 185.51054187 22.77856064 185.51929474 C-10.90089511 185.59624353 -40.62060675 182.12635103 -66.12501526 157.95492554 C-84.15341366 138.88964337 -93.16388304 113.91559033 -92.55860901 87.85336304 C-91.43454786 61.22262072 -78.91496428 39.02890084 -59.92189026 20.99789429 C-43.16105365 6.54594844 -21.79827429 -0.05569698 0 0 Z M70.68748474 56.26742554 C70.66493213 65.50740425 70.64656873 74.74736481 70.63567257 83.98736477 C70.63044414 88.27742469 70.62334722 92.56746487 70.61204529 96.85751343 C70.60121499 100.99421954 70.59520761 105.13090662 70.5926075 109.26762581 C70.59075351 110.84934858 70.58713338 112.43107025 70.58175468 114.01278496 C70.57454234 116.22065392 70.57349388 118.42844326 70.57395935 120.63632202 C70.57173874 121.89540878 70.56951813 123.15449554 70.56723022 124.45173645 C70.36540748 127.17077849 70.36540748 127.17077849 71.68748474 128.26742554 C74.36479854 128.36723767 77.01052649 128.40622429 79.68748474 128.39242554 C80.43771912 128.39629272 81.18795349 128.40015991 81.96092224 128.40414429 C85.62354591 128.74418095 85.62354591 128.74418095 88.68748474 127.26742554 C88.80954308 125.19300055 88.86727198 123.11473612 88.89842224 121.03695679 C88.9409613 119.11979858 88.9409613 119.11979858 88.98435974 117.16390991 C89.02545077 115.12770244 89.06233115 113.09171945 89.08885193 111.05526733 C89.11666166 109.09060593 89.16361373 107.12624539 89.21092224 105.16195679 C89.23074158 103.98480103 89.25056091 102.80764526 89.27098083 101.59481812 C89.73398068 97.89597584 90.76180544 95.44321026 92.68748474 92.26742554 C95.56154829 90.71198665 98.43266271 90.33023789 101.68748474 90.26742554 C104.78651451 91.55868794 106.18788291 92.26822188 107.68748474 95.26742554 C107.8315321 97.66147041 107.92134939 100.03133465 107.96873474 102.42758179 C107.99634888 103.48518959 107.99634888 103.48518959 108.02452087 104.56416321 C108.10330576 107.58594407 108.17108489 110.60794884 108.23973083 113.62997437 C108.29134358 115.83345962 108.3486275 118.03674646 108.40623474 120.24008179 C108.41981018 120.92860733 108.43338562 121.61713287 108.44737244 122.32652283 C108.26397474 125.57900311 108.26397474 125.57900311 109.68748474 128.26742554 C112.36479854 128.36723767 115.01052649 128.40622429 117.68748474 128.39242554 C118.8128363 128.39822632 118.8128363 128.39822632 119.96092224 128.40414429 C123.62354591 128.74418095 123.62354591 128.74418095 126.68748474 127.26742554 C126.81343444 124.77896488 126.87615737 122.31984276 126.89060974 119.82992554 C126.89915985 118.69877319 126.89915985 118.69877319 126.90788269 117.54476929 C126.91735344 115.94077971 126.92387487 114.3367705 126.92771912 112.73275757 C126.9373353 110.30515091 126.96829927 107.87842371 126.99998474 105.45101929 C127.32464807 92.58500457 127.32464807 92.58500457 122.03904724 81.14633179 C121.46928162 80.71191772 120.89951599 80.27750366 120.31248474 79.82992554 C119.74787537 79.3774646 119.18326599 78.92500366 118.60154724 78.45883179 C114.29811544 75.78016505 110.5517919 74.93453056 105.49998474 74.82992554 C104.45455505 74.7899646 103.40912537 74.75000366 102.33201599 74.70883179 C97.39524233 75.27490941 97.39524233 75.27490941 88.68748474 80.26742554 C88.68748474 72.34742554 88.68748474 64.42742554 88.68748474 56.26742554 C82.74748474 56.26742554 76.80748474 56.26742554 70.68748474 56.26742554 Z M206.68748474 56.26742554 C206.66493213 65.50740425 206.64656873 74.74736481 206.63567257 83.98736477 C206.63044414 88.27742469 206.62334722 92.56746487 206.61204529 96.85751343 C206.60121499 100.99421954 206.59520761 105.13090662 206.5926075 109.26762581 C206.59075351 110.84934858 206.58713338 112.43107025 206.58175468 114.01278496 C206.57454234 116.22065392 206.57349388 118.42844326 206.57395935 120.63632202 C206.57173874 121.89540878 206.56951813 123.15449554 206.56723022 124.45173645 C206.36540748 127.17077849 206.36540748 127.17077849 207.68748474 128.26742554 C210.21797876 128.3405612 212.72053311 128.35990081 215.24998474 128.32992554 C215.96090271 128.32541382 216.67182068 128.3209021 217.40428162 128.31625366 C219.16538487 128.30443418 220.9264451 128.28649817 222.68748474 128.26742554 C223.01748474 126.61742554 223.34748474 124.96742554 223.68748474 123.26742554 C225.07967224 124.22648804 225.07967224 124.22648804 226.49998474 125.20492554 C232.81674796 129.29224291 239.36609916 128.85183769 246.68748474 128.26742554 C252.17000653 126.70584039 255.99329655 123.57731176 259.68748474 119.26742554 C260.40935974 118.44242554 261.13123474 117.61742554 261.87498474 116.76742554 C265.6903139 109.39989337 266.63886696 100.66679305 264.57029724 92.61508179 C261.66573726 84.89100856 257.11873322 79.81667854 249.68748474 76.26742554 C246.28507182 75.1332879 243.5224473 75.02800954 239.93748474 74.95492554 C238.74639099 74.91754272 237.55529724 74.88015991 236.32810974 74.84164429 C231.88328683 75.12041781 231.88328683 75.12041781 225.68748474 79.26742554 C225.19248474 67.88242554 225.19248474 67.88242554 224.68748474 56.26742554 C218.74748474 56.26742554 212.80748474 56.26742554 206.68748474 56.26742554 Z M-60.31251526 70.26742554 C-68.26110121 80.05817303 -69.42578534 90.03339315 -68.31251526 102.26742554 C-66.54343438 111.32654441 -60.36385289 118.55499667 -53.04298401 123.93539429 C-42.93824848 129.96992111 -31.60454788 130.56317462 -20.25001526 128.20492554 C-14.11368708 126.53065323 -8.99253165 123.58442179 -4.31251526 119.26742554 C-3.98251526 118.27742554 -3.65251526 117.28742554 -3.31251526 116.26742554 C-4.55606412 114.96954688 -5.80764166 113.67935795 -7.06251526 112.39242554 C-7.75860901 111.67312866 -8.45470276 110.95383179 -9.17189026 110.21273804 C-11.16373743 108.40262875 -12.85528106 107.31894468 -15.31251526 106.26742554 C-15.80751526 106.86555054 -16.30251526 107.46367554 -16.81251526 108.07992554 C-20.98063468 111.72703003 -25.34955746 113.05710863 -30.81251526 113.64242554 C-36.47658217 113.03556123 -41.28995165 111.82248946 -45.18751526 107.45492554 C-49.06780805 101.63448635 -50.21961896 96.16141363 -49.31251526 89.26742554 C-47.90865974 84.29011961 -46.28820227 81.06390473 -42.25001526 77.76742554 C-36.60823173 74.8865148 -31.55539806 74.62778591 -25.31251526 75.26742554 C-22.41102748 76.28102474 -19.92722211 77.67181378 -17.31251526 79.26742554 C-15.99251526 79.92742554 -14.67251526 80.58742554 -13.31251526 81.26742554 C-10.01251526 78.29742554 -6.71251526 75.32742554 -3.31251526 72.26742554 C-6.50049623 65.8914636 -11.85094895 62.87408013 -18.31251526 60.26742554 C-33.30119569 56.29829762 -49.21144587 59.2527458 -60.31251526 70.26742554 Z M8.41795349 84.22836304 C3.38291731 90.16129506 2.03175327 97.04359505 2.37498474 104.66976929 C3.31313957 112.46818133 6.84209574 118.04708803 12.68748474 123.26742554 C21.11724822 128.63463274 29.94088365 129.1761094 39.68748474 128.26742554 C46.74970501 126.61207709 53.00678618 123.26661986 57.12498474 117.12289429 C61.69077358 109.3013867 62.85733258 102.1633357 60.56248474 93.26742554 C57.92175534 85.21075574 53.19490005 81.11170523 45.83592224 77.21273804 C33.10698803 71.61200699 18.2858356 74.97106844 8.41795349 84.22836304 Z M138.68748474 76.26742554 C138.44245871 80.80523345 138.45885008 85.34896466 138.44725037 89.89266968 C138.43765564 92.1644612 138.40670303 94.43530412 138.37498474 96.70687866 C138.30857926 105.80850602 138.65924097 114.10819541 143.37498474 122.14242554 C149.53149556 127.7997598 155.24386353 128.91096855 163.55076599 128.66976929 C168.02369098 128.09603171 170.87504783 126.64120701 174.68748474 124.26742554 C175.34748474 123.93742554 176.00748474 123.60742554 176.68748474 123.26742554 C177.18248474 125.74242554 177.18248474 125.74242554 177.68748474 128.26742554 C182.96748474 128.26742554 188.24748474 128.26742554 193.68748474 128.26742554 C193.68748474 110.77742554 193.68748474 93.28742554 193.68748474 75.26742554 C188.07748474 75.26742554 182.46748474 75.26742554 176.68748474 75.26742554 C176.63850037 77.11207397 176.58951599 78.95672241 176.53904724 80.85726929 C176.46397498 83.30650183 176.3884291 85.75571988 176.31248474 88.20492554 C176.26607849 90.02347046 176.26607849 90.02347046 176.21873474 91.87875366 C176.00115559 98.56931265 175.68764222 104.85195443 173.68748474 111.26742554 C170.92700932 112.18758401 169.05386205 112.46009799 166.18748474 112.51742554 C165.41404724 112.54320679 164.64060974 112.56898804 163.84373474 112.59555054 C161.1611082 112.18732476 160.35359381 111.36022107 158.68748474 109.26742554 C157.21542461 106.32330527 157.44941282 103.30456639 157.37107849 100.07211304 C157.35029739 99.36466949 157.3295163 98.65722595 157.30810547 97.92834473 C157.24267396 95.66647129 157.183755 93.40448092 157.12498474 91.14242554 C157.08179341 89.60986132 157.03817892 88.07730896 156.99412537 86.54476929 C156.88699919 82.78577481 156.78571384 79.02666261 156.68748474 75.26742554 C153.87492193 75.24058241 151.06261233 75.22066366 148.24998474 75.20492554 C147.44754333 75.19654663 146.64510193 75.18816772 145.81834412 75.17953491 C141.94311568 74.77045594 141.94311568 74.77045594 138.68748474 76.26742554 Z " fill="#5271FC" transform="translate(102.31251525878906,131.73257446289063)"/>
<path d="M0 0 C7.0416663 6.08497862 13.66462731 15.88050431 15.47265625 25.13671875 C15.57254883 26.91613938 15.62081638 28.69878196 15.63378906 30.48095703 C15.64339661 31.54951935 15.65300415 32.61808167 15.66290283 33.71902466 C15.66715271 34.87006683 15.67140259 36.02110901 15.67578125 37.20703125 C15.68148132 38.39843719 15.6871814 39.58984314 15.6930542 40.81735229 C15.70250134 43.34079095 15.70903704 45.86424192 15.71289062 48.38769531 C15.72256655 52.22613432 15.75358144 56.06403106 15.78515625 59.90234375 C15.79168962 62.35806975 15.79693878 64.81379957 15.80078125 67.26953125 C15.81312805 68.40842804 15.82547485 69.54732483 15.8381958 70.72073364 C15.80276075 83.56094463 12.16206266 93.82885779 3.40234375 103.3984375 C-8.06316796 114.18588131 -19.82885943 117.60378056 -35.26953125 117.3203125 C-47.95324832 116.60552269 -57.958092 110.21004413 -66.52734375 101.13671875 C-75.14416797 90.41191607 -77.66366322 80.0097901 -77.765625 66.5078125 C-77.77369675 65.48172379 -77.78176849 64.45563507 -77.79008484 63.39845276 C-77.80388394 61.22911242 -77.81462466 59.05975075 -77.82250977 56.89038086 C-77.83400059 54.69207305 -77.85440605 52.49379249 -77.8840332 50.2956543 C-78.12733931 32.21896209 -77.35087588 16.92188795 -64.4609375 2.88671875 C-45.60232467 -14.92606761 -20.60554874 -15.19141693 0 0 Z " fill="#D8D8DA" transform="translate(454.52734375,170.86328125)"/>
<path d="M0 0 C0.75925781 -0.04898438 1.51851563 -0.09796875 2.30078125 -0.1484375 C6.19148349 0.70484253 7.42079569 2.10219712 9.6875 5.375 C10.29509054 9.33129852 10.15845079 13.19697772 10 17.1875 C9.97744141 18.26193359 9.95488281 19.33636719 9.93164062 20.44335938 C9.87287441 23.08783888 9.78319833 25.73159933 9.6875 28.375 C3.4175 28.375 -2.8525 28.375 -9.3125 28.375 C-9.6425 24.415 -9.9725 20.455 -10.3125 16.375 C-11.281875 17.014375 -12.25125 17.65375 -13.25 18.3125 C-17.39987039 20.70567679 -21.54089501 21.42619748 -26.3125 21.375 C-27.3125 20.375 -27.3125 20.375 -27.375 17.8125 C-27.354375 17.008125 -27.33375 16.20375 -27.3125 15.375 C-26.55066406 15.11847656 -25.78882813 14.86195313 -25.00390625 14.59765625 C-17.84770627 11.94423378 -13.17688585 8.93193966 -8.0546875 3.265625 C-5.48974096 0.48214042 -3.67699576 0.16067544 0 0 Z " fill="#5271FC" transform="translate(449.3125,218.625)"/>
<path d="M0 0 C5.11618168 0.86756171 7.7628738 3.5360065 10.90234375 7.48046875 C13.97287059 11.00034098 16.13113898 11.88842589 20.46484375 13.41796875 C20.46484375 15.72796875 20.46484375 18.03796875 20.46484375 20.41796875 C14.83942534 19.96793528 11.8499725 18.7335539 7.46484375 15.41796875 C7.46484375 19.70796875 7.46484375 23.99796875 7.46484375 28.41796875 C1.19484375 28.41796875 -5.07515625 28.41796875 -11.53515625 28.41796875 C-11.64318356 24.68802579 -11.72249222 20.96121654 -11.78515625 17.23046875 C-11.81867188 16.17537109 -11.8521875 15.12027344 -11.88671875 14.03320312 C-11.98480612 6.25977901 -11.98480612 6.25977901 -9.82421875 2.21484375 C-6.43698893 -0.44407386 -4.16318414 -0.22619356 0 0 Z " fill="#5371FC" transform="translate(399.53515625,218.58203125)"/>
<path d="M0 0 C3.31482653 3.22274802 4.543979 5.94430282 4.625 10.5625 C4.49671588 15.15054387 3.43716759 17.75516568 0.25 21.1875 C-3.63259559 23.57678959 -6.47713971 24.55568892 -10.9375 23.75 C-13.89860532 22.7840472 -14.92488978 22.01698246 -17.25 19.75 C-19.33655819 14.7944243 -19.52192487 10.48857589 -18.75 5.1875 C-16.93318942 1.20449218 -15.77476125 -0.30011938 -11.875 -2.25 C-7.05733526 -3.11717965 -4.10991771 -2.7088094 0 0 Z " fill="#5271FA" transform="translate(141.75,222.8125)"/>
<path d="M0 0 C3.40911881 3.40911881 4.12950516 5.92455681 4.5625 10.6875 C4.14285642 15.47143676 2.8496463 18.70367524 -0.625 22.0625 C-4.46923462 24.21074876 -6.94769163 24.37668027 -11.3125 23.6875 C-15.70407343 21.85102384 -16.8371683 20.61125627 -18.75 16.25 C-19.52194493 10.89413467 -19.38321294 6.6381976 -17.125 1.6875 C-11.98421623 -3.58856756 -6.1291453 -3.90036519 0 0 Z " fill="#5370F6" transform="translate(345.75,222.75)"/>
<path d="M0 0 C1.97363787 1.97363787 1.36886375 5.75596744 1.5 8.46484375 C1.54060547 9.21335098 1.58121094 9.96185822 1.62304688 10.73304749 C1.75315049 13.13431919 1.8772438 15.53584214 2 17.9375 C2.16162913 21.09274056 2.32907775 24.24759461 2.5 27.40234375 C2.55317383 28.49771706 2.55317383 28.49771706 2.60742188 29.61521912 C2.76240664 33.43421316 2.76240664 33.43421316 4 37 C7.96 37 11.92 37 16 37 C16.86985543 32.65072284 17.11575046 29.12736067 17.09765625 24.73046875 C17.0962413 24.04946609 17.09482635 23.36846344 17.09336853 22.66682434 C17.08780298 20.50700353 17.07525703 18.34728911 17.0625 16.1875 C17.05748054 14.71679838 17.05291841 13.24609512 17.04882812 11.77539062 C17.03869877 8.18352049 17.01911703 4.59187835 17 1 C23.27 1 29.54 1 36 1 C36 1.33 36 1.66 36 2 C30.72 2 25.44 2 20 2 C20.05220703 4.76697266 20.05220703 4.76697266 20.10546875 7.58984375 C20.13362058 10.03905334 20.16091924 12.48827285 20.1875 14.9375 C20.21263672 16.14986328 20.23777344 17.36222656 20.26367188 18.61132812 C20.37273318 32.02586838 20.37273318 32.02586838 17 38 C12.9983959 40.66773607 9.70568852 40.71478813 5 40 C2.49839182 38.12379387 1.38054348 36.76108697 0 34 C-0.08639869 31.59161322 -0.11567764 29.21266119 -0.09765625 26.8046875 C-0.0962413 26.09724396 -0.09482635 25.38980042 -0.09336853 24.66091919 C-0.087766 22.39890331 -0.07521318 20.13698602 -0.0625 17.875 C-0.05748532 16.34244935 -0.05292236 14.80989714 -0.04882812 13.27734375 C-0.03864616 9.51816053 -0.01907143 5.75919076 0 2 C-8.415 2.495 -8.415 2.495 -17 3 C-17.33 13.56 -17.66 24.12 -18 35 C-18.33 35 -18.66 35 -19 35 C-19.04937279 30.33692986 -19.08570627 25.67401127 -19.10986328 21.01074219 C-19.11993188 19.42380117 -19.13358767 17.83687875 -19.15087891 16.25 C-19.17509001 13.97130753 -19.18647422 11.69285994 -19.1953125 9.4140625 C-19.20563507 8.70255035 -19.21595764 7.99103821 -19.22659302 7.25796509 C-19.22699422 5.50368335 -19.12202209 3.75003291 -19 2 C-16.1755377 -0.8244623 -13.99975379 -0.43964398 -10.0625 -0.6875 C-8.19271484 -0.81705078 -8.19271484 -0.81705078 -6.28515625 -0.94921875 C-3 -1 -3 -1 0 0 Z " fill="#5A6FDB" transform="translate(259,205)"/>
<path d="M0 0 C2.5 1.5625 2.5 1.5625 4 4 C4.31308659 7.88227376 3.85191129 10.9514938 1.375 14 C-1.97895713 15.41219248 -4.39845988 15.45019252 -8 15 C-10.4375 13.5 -10.4375 13.5 -12 11 C-12.61014545 8.1910285 -12.65360928 5.80363979 -12 3 C-8.37297107 -1.50630867 -5.38985745 -1.56795853 0 0 Z " fill="#5271FB" transform="translate(454,202)"/>
<path d="M0 0 C3.0766616 2.12999649 3.85763576 3.25654231 4.5625 6.9375 C3.79477021 11.11736219 2.42123173 12.52506641 -1 15 C-4.95779649 15.62491523 -7.00863886 15.61006839 -10.4375 13.5 C-12.33148168 10.46962931 -12.64334247 8.44169066 -12.4453125 4.91015625 C-12 3 -12 3 -9.9375 0.4375 C-6.07364271 -1.45332378 -4.09918272 -1.19248952 0 0 Z " fill="#5871F3" transform="translate(402,202)"/>
<path d="M0 0 C0.66 0 1.32 0 2 0 C2.33 23.43 2.66 46.86 3 71 C9.93 71.495 9.93 71.495 17 72 C17 72.33 17 72.66 17 73 C14.54137599 73.05383848 12.0839245 73.09359038 9.625 73.125 C8.92632812 73.14175781 8.22765625 73.15851563 7.5078125 73.17578125 C5.67102514 73.19344267 3.83398037 73.10303261 2 73 C-0.8215717 70.1784283 -0.282441 68.31761675 -0.3347168 64.36303711 C-0.34636871 63.68160141 -0.35802063 63.00016571 -0.37002563 62.29808044 C-0.40607049 60.04119342 -0.42789195 57.78441419 -0.44921875 55.52734375 C-0.47046199 53.96317068 -0.49242868 52.39900728 -0.51509094 50.83485413 C-0.56052416 47.5555547 -0.59930976 44.27626629 -0.63305664 40.99682617 C-0.67663716 36.78407613 -0.73335664 32.57163331 -0.7946043 28.35910702 C-0.84068979 25.12936512 -0.88152425 21.89957469 -0.92057228 18.66974068 C-0.93967682 17.11591583 -0.96004186 15.56210597 -0.98166466 14.00831413 C-1.0106995 11.84141875 -1.03307815 9.67456004 -1.0534668 7.50756836 C-1.06741989 6.2722789 -1.08137299 5.03698944 -1.0957489 3.76426697 C-1 1 -1 1 0 0 Z " fill="#5C74E0" transform="translate(307,188)"/>
<path d="M0 0 C3.9460117 0.31801739 6.71533248 0.62905468 9.5625 3.5625 C11.07373642 8.21551738 11.5625 12.68439845 11.5625 17.5625 C12.2225 17.5625 12.8825 17.5625 13.5625 17.5625 C13.5625 18.2225 13.5625 18.8825 13.5625 19.5625 C13.2325 19.8925 12.9025 20.2225 12.5625 20.5625 C12.8925 21.2225 13.2225 21.8825 13.5625 22.5625 C12.9025 22.5625 12.2425 22.5625 11.5625 22.5625 C11.5625 30.8125 11.5625 39.0625 11.5625 47.5625 C11.2325 47.5625 10.9025 47.5625 10.5625 47.5625 C10.5531543 46.88670898 10.54380859 46.21091797 10.53417969 45.51464844 C10.48042699 42.4465289 10.39679008 39.37992613 10.3125 36.3125 C10.29832031 35.24902344 10.28414063 34.18554688 10.26953125 33.08984375 C10.23730469 32.06503906 10.20507812 31.04023438 10.171875 29.984375 C10.15092773 29.04174805 10.12998047 28.09912109 10.10839844 27.12792969 C9.41013053 23.84644525 8.16021823 22.62490187 5.5625 20.5625 C2.9774692 20.08223083 2.9774692 20.08223083 0.3125 20.3125 C-1.02554687 20.36664063 -1.02554687 20.36664063 -2.390625 20.421875 C-3.06609375 20.46828125 -3.7415625 20.5146875 -4.4375 20.5625 C-3.7775 19.2425 -3.1175 17.9225 -2.4375 16.5625 C-1.344375 16.60375 -0.25125 16.645 0.875 16.6875 C4.65142229 16.88324666 4.65142229 16.88324666 7.5625 14.5625 C8.17861847 12.70438086 8.17861847 12.70438086 8.3125 10.625 C8.42851562 9.59052734 8.42851562 9.59052734 8.546875 8.53515625 C8.67064587 6.34738438 8.67064587 6.34738438 7.5625 3.5625 C6.14946762 3.3118981 4.73170526 3.08788079 3.3125 2.875 C2.52359375 2.74738281 1.7346875 2.61976563 0.921875 2.48828125 C-1.51262393 2.39803746 -1.51262393 2.39803746 -3.71875 3.71875 C-5.65751708 5.45363511 -5.65751708 5.45363511 -5.828125 8.04296875 C-5.78171875 8.93628906 -5.7353125 9.82960937 -5.6875 10.75 C-5.65140625 11.65105469 -5.6153125 12.55210937 -5.578125 13.48046875 C-5.53171875 14.16753906 -5.4853125 14.85460937 -5.4375 15.5625 C-6.0975 15.5625 -6.7575 15.5625 -7.4375 15.5625 C-8.39907303 10.85915368 -8.82127437 7.5568245 -7.0625 3 C-4.23324229 0.37283213 -3.66130214 0.14669658 0 0 Z " fill="#CAD2EE" transform="translate(448.4375,199.4375)"/>
<path d="M0 0 C1.12470898 3.37412693 0.76437196 5.56720865 0 9 C-0.10925027 10.77831712 -0.17498192 12.55965297 -0.20532227 14.34106445 C-0.22526749 15.3817659 -0.24521271 16.42246735 -0.26576233 17.4947052 C-0.28247482 18.6063353 -0.29918732 19.71796539 -0.31640625 20.86328125 C-0.33718735 22.01040085 -0.35796844 23.15752045 -0.37937927 24.33940125 C-0.44466619 27.99704098 -0.50366286 31.65475138 -0.5625 35.3125 C-0.60570504 37.79492913 -0.64931997 40.27735116 -0.69335938 42.75976562 C-0.80032622 48.83976945 -0.90213114 54.91984329 -1 61 C-0.34 61 0.32 61 1 61 C1 63.97 1 66.94 1 70 C-3.45499645 63.31750533 -3.30804866 55.87312432 -3.30078125 48.10546875 C-3.30506638 47.07746658 -3.3093515 46.04946442 -3.31376648 44.99031067 C-3.31948514 42.82452121 -3.32002831 40.65871255 -3.31567383 38.49291992 C-3.31251952 35.20783123 -3.33598525 31.92364916 -3.36132812 28.63867188 C-3.36360217 26.52343862 -3.36430413 24.40820298 -3.36328125 22.29296875 C-3.372491 21.32489792 -3.38170074 20.35682709 -3.39118958 19.35942078 C-3.34553451 12.51097697 -2.08636255 6.51457072 0 0 Z " fill="#C8D2F3" transform="translate(380,189)"/>
<path d="M0 0 C0.66 0 1.32 0 2 0 C1.34 1.65 0.68 3.3 0 5 C1.65 5 3.3 5 5 5 C5 4.34 5 3.68 5 3 C6.32 3 7.64 3 9 3 C9 2.34 9 1.68 9 1 C9.99 1.33 10.98 1.66 12 2 C7.70166639 5.14512215 4.17930997 6.75696561 -1 8 C-1 9.65 -1 11.3 -1 13 C5.62177926 12.69343615 10.22125154 11.25711277 16 8 C16 11.96 16 15.92 16 20 C15.67 20 15.34 20 15 20 C15 17.03 15 14.06 15 11 C14.236875 11.66 13.47375 12.32 12.6875 13 C6.70239691 16.97129193 -1.02674445 15.30380747 -7.6875 14 C-9.1274731 13.67751769 -10.56607064 13.34837329 -12 13 C-11.67 12.34 -11.34 11.68 -11 11 C-8.03 11.495 -8.03 11.495 -5 12 C-4.67 10.02 -4.34 8.04 -4 6 C-5.134375 5.71125 -6.26875 5.4225 -7.4375 5.125 C-8.613125 4.75375 -9.78875 4.3825 -11 4 C-11.33 3.34 -11.66 2.68 -12 2 C-8.64566891 2.94933899 -5.30753495 3.89748835 -2 5 C-1.855625 4.360625 -1.71125 3.72125 -1.5625 3.0625 C-1 1 -1 1 0 0 Z " fill="#C9D3F6" transform="translate(424,226)"/>
<path d="M0 0 C0.85722656 0.0103125 1.71445312 0.020625 2.59765625 0.03125 C5.30366443 0.57335515 6.2248699 1.38869207 7.9375 3.5 C7.01066406 3.48839844 6.08382813 3.47679687 5.12890625 3.46484375 C3.33259766 3.45130859 3.33259766 3.45130859 1.5 3.4375 C-0.29244141 3.42009766 -0.29244141 3.42009766 -2.12109375 3.40234375 C-4.95123341 3.16098208 -4.95123341 3.16098208 -6.0625 4.5 C-6.21964654 6.13256758 -6.31335414 7.77135338 -6.37890625 9.41015625 C-6.42080078 10.39951172 -6.46269531 11.38886719 -6.50585938 12.40820312 C-6.56483398 13.96958008 -6.56483398 13.96958008 -6.625 15.5625 C-6.66818359 16.60728516 -6.71136719 17.65207031 -6.75585938 18.72851562 C-6.86231105 21.31883972 -6.96294308 23.90940175 -7.0625 26.5 C-1.7825 26.5 3.4975 26.5 8.9375 26.5 C8.9375 22.87 8.9375 19.24 8.9375 15.5 C9.2675 15.5 9.5975 15.5 9.9375 15.5 C9.9375 19.79 9.9375 24.08 9.9375 28.5 C3.6675 28.5 -2.6025 28.5 -9.0625 28.5 C-9.17052731 24.77005704 -9.24983597 21.04324779 -9.3125 17.3125 C-9.34601563 16.25740234 -9.37953125 15.20230469 -9.4140625 14.11523438 C-9.51206558 6.34849044 -9.51206558 6.34849044 -7.36328125 2.29296875 C-4.660738 0.18691213 -3.39318136 -0.12283009 0 0 Z " fill="#6A7FE2" transform="translate(397.0625,218.5)"/>
<path d="M0 0 C0.66 0.33 1.32 0.66 2 1 C1.90234375 2.98567708 1.8046875 4.97135417 1.70703125 6.95703125 C1.85387219 9.06955843 1.85387219 9.06955843 3.21875 10.75 C5.52119964 12.36575414 6.90315701 12.30855839 9.6875 12.1875 C10.89986328 12.14689453 10.89986328 12.14689453 12.13671875 12.10546875 C12.75160156 12.07066406 13.36648438 12.03585938 14 12 C14.33 13.32 14.66 14.64 15 16 C14.16855469 15.95359375 13.33710938 15.9071875 12.48046875 15.859375 C11.39378906 15.82328125 10.30710937 15.7871875 9.1875 15.75 C8.10855469 15.70359375 7.02960938 15.6571875 5.91796875 15.609375 C2.95055316 15.7004099 2.95055316 15.7004099 1.34960938 17.69921875 C-0.23265245 20.39662023 -0.42130025 22.09272871 -0.51171875 25.203125 C-0.56489258 26.67265625 -0.56489258 26.67265625 -0.61914062 28.171875 C-0.64169922 29.18765625 -0.66425781 30.2034375 -0.6875 31.25 C-0.72166016 32.28125 -0.75582031 33.3125 -0.79101562 34.375 C-0.87338093 36.91655812 -0.94256834 39.45777626 -1 42 C-1.33 42 -1.66 42 -2 42 C-2.16729064 38.03092526 -2.32788226 34.06164279 -2.48217773 30.09204102 C-2.53565802 28.74072921 -2.59099194 27.38948948 -2.64819336 26.03833008 C-2.72993571 24.09997011 -2.80453323 22.16131296 -2.87890625 20.22265625 C-2.9260376 19.05484619 -2.97316895 17.88703613 -3.02172852 16.68383789 C-3 14 -3 14 -2 13 C-1.63239269 10.67182036 -1.29758419 8.3381615 -1 6 C-1.66 5.67 -2.32 5.34 -3 5 C-2.01 3.35 -1.02 1.7 0 0 Z " fill="#D0D7E8" transform="translate(389,204)"/>
<path d="M0 0 C1 1 1 1 1.11352539 4.14282227 C1.11336633 5.53402697 1.10767506 6.92523761 1.09765625 8.31640625 C1.0962413 9.04746078 1.09482635 9.77851532 1.09336853 10.53172302 C1.08775408 12.87535632 1.07519922 15.21889539 1.0625 17.5625 C1.05748686 19.14778508 1.05292363 20.73307166 1.04882812 22.31835938 C1.03777997 26.2122761 1.02050572 30.10612205 1 34 C0.67 34 0.34 34 0 34 C0 23.44 0 12.88 0 2 C-8.415 2.495 -8.415 2.495 -17 3 C-17.33 13.56 -17.66 24.12 -18 35 C-18.33 35 -18.66 35 -19 35 C-19.04937279 30.33692986 -19.08570627 25.67401127 -19.10986328 21.01074219 C-19.11993188 19.42380117 -19.13358767 17.83687875 -19.15087891 16.25 C-19.17509001 13.97130753 -19.18647422 11.69285994 -19.1953125 9.4140625 C-19.20563507 8.70255035 -19.21595764 7.99103821 -19.22659302 7.25796509 C-19.22699422 5.50368335 -19.12202209 3.75003291 -19 2 C-16.1755377 -0.8244623 -13.99975379 -0.43964398 -10.0625 -0.6875 C-8.19271484 -0.81705078 -8.19271484 -0.81705078 -6.28515625 -0.94921875 C-3 -1 -3 -1 0 0 Z " fill="#5F78D5" transform="translate(259,205)"/>
<path d="M0 0 C0.33 1.32 0.66 2.64 1 4 C0.236875 4.45375 -0.52625 4.9075 -1.3125 5.375 C-3.23632814 6.53824492 -5.12941224 7.7529415 -7 9 C-4.525 9.99 -4.525 9.99 -2 11 C-5.65587458 14.65587458 -10.03276399 14.95969788 -15 15 C-16 14 -16 14 -16.0625 11.4375 C-16.041875 10.633125 -16.02125 9.82875 -16 9 C-15.18015625 8.68546875 -14.3603125 8.3709375 -13.515625 8.046875 C-12.43796875 7.61890625 -11.3603125 7.1909375 -10.25 6.75 C-9.18265625 6.33234375 -8.1153125 5.9146875 -7.015625 5.484375 C-4.00218129 4.00107369 -2.20321683 2.50268319 0 0 Z " fill="#5F76ED" transform="translate(438,225)"/>
<path d="M0 0 C0 0.66 0 1.32 0 2 C-0.5775 2.2475 -1.155 2.495 -1.75 2.75 C-4.13449889 3.93990475 -4.13449889 3.93990475 -6.125 6.125 C-6.74375 6.74375 -7.3625 7.3625 -8 8 C-8.66 8 -9.32 8 -10 8 C-10 18.23 -10 28.46 -10 39 C-10.66 39 -11.32 39 -12 39 C-12.07453622 34.8374388 -12.12878254 30.6752382 -12.16479492 26.51220703 C-12.17981825 25.09807563 -12.20024305 23.68399032 -12.22631836 22.27001953 C-12.26298954 20.22937603 -12.27979036 18.18935208 -12.29296875 16.1484375 C-12.3086792 14.92302246 -12.32438965 13.69760742 -12.34057617 12.43505859 C-11.96420789 8.63899996 -10.96438766 6.24765901 -9 3 C-6.34319897 1.11834582 -3.28999195 0 0 0 Z " fill="#5A71DD" transform="translate(203,221)"/>
<path d="M0 0 C0.66 0 1.32 0 2 0 C2 0.66 2 1.32 2 2 C2.66 2 3.32 2 4 2 C3.33333333 4.66666667 2.66666667 7.33333333 2 10 C-0.64 10.33 -3.28 10.66 -6 11 C-9.07692308 6.56923077 -9.07692308 6.56923077 -8.6875 3.6875 C-8.460625 3.130625 -8.23375 2.57375 -8 2 C-5.625 1.375 -5.625 1.375 -3 1 C-2.34 1.66 -1.68 2.32 -1 3 C-0.67 2.01 -0.34 1.02 0 0 Z " fill="#5171FB" transform="translate(401,205)"/>
<path d="M0 0 C3 3 3 3 3.34057617 5.4519043 C3.32486572 6.39976807 3.30915527 7.34763184 3.29296875 8.32421875 C3.28330078 9.35224609 3.27363281 10.38027344 3.26367188 11.43945312 C3.23853516 12.51130859 3.21339844 13.58316406 3.1875 14.6875 C3.16719727 16.31268555 3.16719727 16.31268555 3.14648438 17.97070312 C3.11111023 20.64734704 3.05730304 23.32373575 3 26 C-3.27 26 -9.54 26 -16 26 C-16 21.71 -16 17.42 -16 13 C-15.67 13 -15.34 13 -15 13 C-15 16.63 -15 20.26 -15 24 C-9.72 24 -4.44 24 1 24 C0.505 12.12 0.505 12.12 0 0 Z " fill="#6277DE" transform="translate(456,221)"/>
<path d="M0 0 C0.66 0 1.32 0 2 0 C2.33 6.27 2.66 12.54 3 19 C3.66 19.33 4.32 19.66 5 20 C5.33 18.68 5.66 17.36 6 16 C6.66 16.33 7.32 16.66 8 17 C10.99054216 17.03092141 13.96794247 16.93267259 16.95703125 16.83984375 C20.07456576 17.00392451 22.19467147 17.67771021 25 19 C20.59800638 20.46733121 16.3409586 19.86083193 11.73828125 19.64453125 C7.07576586 19.86122162 7.07576586 19.86122162 0 24 C0 16.08 0 8.16 0 0 Z " fill="#5C73DE" transform="translate(327,188)"/>
<path d="M0 0 C2.64 0.99 5.28 1.98 8 3 C8 5.31 8 7.62 8 10 C2.29290936 9.53411505 -1.15939723 8.06242216 -6 5 C-6 8.63 -6 12.26 -6 16 C-6.33 16 -6.66 16 -7 16 C-7 12.04 -7 8.08 -7 4 C-3 2 -3 2 0 2 C0 1.34 0 0.68 0 0 Z " fill="#5472F7" transform="translate(412,229)"/>
<path d="M0 0 C2.5 1.5625 2.5 1.5625 4 4 C4.31308659 7.88227376 3.85191129 10.9514938 1.375 14 C-1.97895713 15.41219248 -4.39845988 15.45019252 -8 15 C-10.4375 13.5 -10.4375 13.5 -12 11 C-12.61014545 8.1910285 -12.65360928 5.80363979 -12 3 C-8.37297107 -1.50630867 -5.38985745 -1.56795853 0 0 Z M-9.9375 2.125 C-11.48724515 4.85984439 -11.32162076 6.9124407 -11 10 C-9.26184026 13.35981224 -9.26184026 13.35981224 -5.5625 13.75 C-2.03891266 14.22511696 -2.03891266 14.22511696 1 13 C2.11451115 7.65154398 2.11451115 7.65154398 1 2.5 C-2.41203175 -0.05902382 -6.26875665 -0.00523807 -9.9375 2.125 Z " fill="#697BDD" transform="translate(454,202)"/>
<path d="M0 0 C0.33 0.66 0.66 1.32 1 2 C-0.30208333 3.49739583 -1.60416667 4.99479167 -2.90625 6.4921875 C-4.19572458 7.95936421 -4.19572458 7.95936421 -4 10 C-5.89027623 10.5607518 -7.7875711 11.09787859 -9.6875 11.625 C-10.74324219 11.92664063 -11.79898438 12.22828125 -12.88671875 12.5390625 C-16.33817678 13.05006883 -17.9413675 12.57755071 -21 11 C-21 10.67 -21 10.34 -21 10 C-20.154375 9.78085937 -19.30875 9.56171875 -18.4375 9.3359375 C-11.17818276 7.30662836 -5.61199881 5.08640375 0 0 Z " fill="#5871E8" transform="translate(98,250)"/>
<path d="M0 0 C0.33 0.66 0.66 1.32 1 2 C5.95 2 10.9 2 16 2 C16 2.66 16 3.32 16 4 C14.35064453 4.03867188 14.35064453 4.03867188 12.66796875 4.078125 C1.52308508 4.45938405 -7.36128313 6.01852677 -17 12 C-16.67 10.68 -16.34 9.36 -16 8 C-15.01 8 -14.02 8 -13 8 C-13 7.34 -13 6.68 -13 6 C-11.96939453 5.72736328 -11.96939453 5.72736328 -10.91796875 5.44921875 C-10.01691406 5.19785156 -9.11585937 4.94648438 -8.1875 4.6875 C-7.29417969 4.44386719 -6.40085937 4.20023438 -5.48046875 3.94921875 C-2.94752262 2.9799181 -1.7283504 2.04990396 0 0 Z " fill="#5C72DE" transform="translate(63,187)"/>
<path d="M0 0 C0.66 0 1.32 0 2 0 C1.42655063 2.86724686 1.1385485 3.8614515 -1 6 C-1.28178989 8.82992169 -1.28178989 8.82992169 -1.1875 12 C-1.18105469 13.0725 -1.17460938 14.145 -1.16796875 15.25 C-1.18263423 17.96127498 -1.18263423 17.96127498 0 20 C2.02463255 20.65213292 2.02463255 20.65213292 4 21 C4 21.66 4 22.32 4 23 C6.64 23 9.28 23 12 23 C10.03600008 24.47299994 8.55488132 25.02956335 6.09375 24.8984375 C2.26953241 24.1706946 0.33333362 23.32500028 -2.5 20.5625 C-4.5806271 15.62101063 -4.79896847 11.28729138 -4 6 C-2.9409656 3.41179912 -1.92828875 2.09843187 0 0 Z " fill="#5D72D5" transform="translate(127,222)"/>
<path d="M0 0 C0.556875 0.28875 1.11375 0.5775 1.6875 0.875 C9.73599176 4.79048248 18.65458753 5.50175767 27.375 3 C28.24125 2.67 29.1075 2.34 30 2 C30 2.66 30 3.32 30 4 C30.66 4.33 31.32 4.66 32 5 C28.97305781 5.8780443 26.26842812 6.12858505 23.12109375 6.1328125 C22.20005859 6.13410156 21.27902344 6.13539063 20.33007812 6.13671875 C18.89825195 6.13091797 18.89825195 6.13091797 17.4375 6.125 C16.47908203 6.12886719 15.52066406 6.13273437 14.53320312 6.13671875 C13.61345703 6.13542969 12.69371094 6.13414062 11.74609375 6.1328125 C10.90747803 6.13168457 10.0688623 6.13055664 9.20483398 6.12939453 C7 6 7 6 4 5 C1.85744207 5.38932856 1.85744207 5.38932856 0 6 C0 4.02 0 2.04 0 0 Z " fill="#5A6FDF" transform="translate(326,255)"/>
<path d="M0 0 C3.83318619 -0.08789644 7.66610928 -0.14069087 11.5 -0.1875 C13.11648438 -0.22520508 13.11648438 -0.22520508 14.765625 -0.26367188 C21.29975901 -0.3234353 26.046712 0.28961544 32 3 C32.99 3.33 33.98 3.66 35 4 C35.495 5.485 35.495 5.485 36 7 C35.07380859 6.70996094 35.07380859 6.70996094 34.12890625 6.4140625 C31.4264637 5.58317453 28.71512488 4.78838612 26 4 C25.31679688 3.78730469 24.63359375 3.57460937 23.9296875 3.35546875 C16.1447058 1.23367962 7.99594119 1.83475667 0 2 C0 1.34 0 0.68 0 0 Z " fill="#6379E1" transform="translate(412,159)"/>
<path d="M0 0 C0.66 0 1.32 0 2 0 C1.67515625 0.89138672 1.67515625 0.89138672 1.34375 1.80078125 C-1.49656692 10.25598392 -1.89194921 18.2497349 0 27 C-0.66 27 -1.32 27 -2 27 C-4.04538889 20.04567778 -4.58169634 13.22124213 -5 6 C-4.34 6 -3.68 6 -3 6 C-2.67 5.01 -2.34 4.02 -2 3 C-1.34 3 -0.68 3 0 3 C0 2.01 0 1.02 0 0 Z " fill="#5772DD" transform="translate(107,218)"/>
<path d="M0 0 C0.33 0 0.66 0 1 0 C1.31464883 5.24414718 0.83856733 8.53939419 -2 13 C-4.78141358 15.68869979 -7.14095342 16.73076419 -11 17 C-14.75 16.1875 -14.75 16.1875 -18 15 C-18.33 14.34 -18.66 13.68 -19 13 C-16.34624517 12.92417843 -14.03909391 12.99141841 -11.4375 13.5625 C-8.85608374 14.02583112 -7.40619665 14.03122713 -5 13 C-4.67 12.01 -4.34 11.02 -4 10 C-3.34 10 -2.68 10 -2 10 C-1.34 6.7 -0.68 3.4 0 0 Z " fill="#5B6EDB" transform="translate(349,230)"/>
<path d="M0 0 C2.4375 1.6875 2.4375 1.6875 4 4 C4.4375 7.0625 4.4375 7.0625 4 10 C2.5 11.875 2.5 11.875 1 13 C1.52268466 10.23723823 2.10869587 7.6739124 3 5 C2.34 5 1.68 5 1 5 C0.34 4.01 -0.32 3.02 -1 2 C-4.5 1.5 -4.5 1.5 -8 2 C-10.23551759 5.35327639 -10.17283528 5.90743657 -9.625 9.6875 C-9.51414062 10.49574219 -9.40328125 11.30398437 -9.2890625 12.13671875 C-9.19367188 12.75160156 -9.09828125 13.36648437 -9 14 C-11.85280423 11.56449426 -11.98826689 11.09239821 -12.5 7.0625 C-12.36136447 3.7955237 -12.09123507 3.11335266 -9.9375 0.4375 C-6.07364271 -1.45332378 -4.09918272 -1.19248952 0 0 Z " fill="#6C7DE0" transform="translate(402,202)"/>
<path d="M0 0 C0.66 0 1.32 0 2 0 C1.34 1.65 0.68 3.3 0 5 C1.65 5 3.3 5 5 5 C5 4.34 5 3.68 5 3 C6.32 3 7.64 3 9 3 C9 2.34 9 1.68 9 1 C9.99 1.33 10.98 1.66 12 2 C7.65462194 5.28552975 4.61923716 6.90634605 -1 7 C-4.44354135 6.28472435 -7.77062051 5.40434702 -11 4 C-11.33 3.34 -11.66 2.68 -12 2 C-8.64566891 2.94933899 -5.30753495 3.89748835 -2 5 C-1.855625 4.360625 -1.71125 3.72125 -1.5625 3.0625 C-1 1 -1 1 0 0 Z " fill="#CCD2EE" transform="translate(424,226)"/>
<path d="M0 0 C0.639375 0.66 1.27875 1.32 1.9375 2 C7.8115795 7.84079859 13.58432539 13.21327254 21 17 C18.39417629 17.93065133 17.35801776 18.14917407 14.75 17.0625 C13.88375 16.5365625 13.88375 16.5365625 13 16 C13 15.34 13 14.68 13 14 C10.03 13.505 10.03 13.505 7 13 C6.896875 12.360625 6.79375 11.72125 6.6875 11.0625 C6.460625 10.381875 6.23375 9.70125 6 9 C5.01 8.67 4.02 8.34 3 8 C0 2.77777778 0 2.77777778 0 0 Z " fill="#6179E4" transform="translate(384,267)"/>
<path d="M0 0 C1.53445094 3.06890187 0.54984289 5.70094266 0 9 C-0.66 9 -1.32 9 -2 9 C-2.12503906 9.56589844 -2.25007813 10.13179687 -2.37890625 10.71484375 C-3.03433822 13.12633874 -3.91549178 15.28322884 -4.9375 17.5625 C-5.44603516 18.70912109 -5.44603516 18.70912109 -5.96484375 19.87890625 C-7 22 -7 22 -9 25 C-8.43858604 19.64923982 -7.13138283 15.20142702 -5.0625 10.25 C-4.79759766 9.59128906 -4.53269531 8.93257812 -4.25976562 8.25390625 C-3.04163977 5.27357848 -1.7923654 2.68854809 0 0 Z " fill="#5D74DF" transform="translate(22,178)"/>
<path d="M0 0 C-1.62034283 2.14949538 -3.24595794 4.2946141 -4.875 6.4375 C-5.33519531 7.04916016 -5.79539062 7.66082031 -6.26953125 8.29101562 C-9.7734375 12.88671875 -9.7734375 12.88671875 -12 14 C-11.67 12.68 -11.34 11.36 -11 10 C-10.34 10 -9.68 10 -9 10 C-9 9.01 -9 8.02 -9 7 C-8.34 6.34 -7.68 5.68 -7 5 C-7.3185177 2.89179203 -7.3185177 2.89179203 -8 1 C-3.375 -1.125 -3.375 -1.125 0 0 Z " fill="#5871EF" transform="translate(476,274)"/>
<path d="M0 0 C0.75 1.75 0.75 1.75 1 4 C-2.03820163 7.85617899 -5.85224483 10.30197957 -10.5 11.8125 C-13.50571905 12.03792893 -15.31514246 11.30407366 -18 10 C-17.67 9.01 -17.34 8.02 -17 7 C-16.13375 7.495 -16.13375 7.495 -15.25 8 C-12.80116138 9.27075898 -12.80116138 9.27075898 -9 9 C-6.82169941 7.55941387 -6.82169941 7.55941387 -4.8125 5.625 C-4.11769531 4.99851563 -3.42289063 4.37203125 -2.70703125 3.7265625 C-0.9189493 2.09692057 -0.9189493 2.09692057 0 0 Z " fill="#5D72E2" transform="translate(99,202)"/>
<path d="M0 0 C0.33 0 0.66 0 1 0 C1.33 1.65 1.66 3.3 2 5 C7.28 5.33 12.56 5.66 18 6 C18 6.33 18 6.66 18 7 C16.67935547 7.09087891 16.67935547 7.09087891 15.33203125 7.18359375 C13.58986328 7.30927734 13.58986328 7.30927734 11.8125 7.4375 C10.66394531 7.51871094 9.51539063 7.59992188 8.33203125 7.68359375 C5.48401829 7.95403812 2.78789518 8.37521747 0 9 C-0.66 8.01 -1.32 7.02 -2 6 C-1.125 2.8125 -1.125 2.8125 0 0 Z " fill="#5971EA" transform="translate(172,254)"/>
<path d="M0 0 C0.33 0 0.66 0 1 0 C1.33 3.3 1.66 6.6 2 10 C2.66 10 3.32 10 4 10 C4.06058594 10.63808594 4.12117187 11.27617187 4.18359375 11.93359375 C4.26738281 12.75988281 4.35117188 13.58617187 4.4375 14.4375 C4.51871094 15.26121094 4.59992187 16.08492187 4.68359375 16.93359375 C4.78930815 18.98662025 4.78930815 18.98662025 6 20 C6.04063832 21.66617115 6.042721 23.33388095 6 25 C3.7947615 21.69214225 2.8752899 18.53628252 1.875 14.75 C1.69324219 14.10675781 1.51148438 13.46351563 1.32421875 12.80078125 C0.15779198 8.44202859 -0.17485502 4.49960249 0 0 Z " fill="#5B75DB" transform="translate(11,233)"/>
<path d="M0 0 C1.12329712 0.07069702 1.12329712 0.07069702 2.26928711 0.14282227 C3.07817383 0.19116211 3.88706055 0.23950195 4.72045898 0.28930664 C5.99566406 0.37341797 5.99566406 0.37341797 7.29663086 0.45922852 C8.57763672 0.53753906 8.57763672 0.53753906 9.88452148 0.61743164 C12.00135081 0.74751612 14.1177833 0.88402822 16.23413086 1.02172852 C16.23413086 1.35172852 16.23413086 1.68172852 16.23413086 2.02172852 C10.62413086 2.02172852 5.01413086 2.02172852 -0.76586914 2.02172852 C-0.76586914 4.99172852 -0.76586914 7.96172852 -0.76586914 11.02172852 C-2.76586914 9.02172852 -2.76586914 9.02172852 -2.99633789 7.11157227 C-2.85506592 0.03513077 -2.85506592 0.03513077 0 0 Z " fill="#5771E3" transform="translate(173.765869140625,185.978271484375)"/>
<path d="M0 0 C-6.29718136 4.12206799 -11.46828078 5.82703776 -19 6 C-18.67 5.34 -18.34 4.68 -18 4 C-15.27734375 3.3671875 -15.27734375 3.3671875 -11.9375 2.875 C-10.83277344 2.70742188 -9.72804688 2.53984375 -8.58984375 2.3671875 C-7.30787109 2.18542969 -7.30787109 2.18542969 -6 2 C-6 1.34 -6 0.68 -6 0 C-3.50907189 -1.24546405 -2.58919267 -0.7767578 0 0 Z " fill="#CAD2F2" transform="translate(449,281)"/>
<path d="M0 0 C0.99 0.33 1.98 0.66 3 1 C2.06862408 2.29608947 1.1296434 3.58671632 0.1875 4.875 C-0.33457031 5.59429687 -0.85664063 6.31359375 -1.39453125 7.0546875 C-3 9 -3 9 -6 11 C-6.33 9.02 -6.66 7.04 -7 5 C-6.01 4.34 -5.02 3.68 -4 3 C-4.33 4.32 -4.66 5.64 -5 7 C-4.34 7 -3.68 7 -3 7 C-2.814375 6.1028125 -2.814375 6.1028125 -2.625 5.1875 C-2 3 -2 3 0 0 Z " fill="#CBD1EC" transform="translate(461,265)"/>
<path d="M0 0 C0.515625 0.66 1.03125 1.32 1.5625 2 C5.19992503 6.47683081 8.91907389 10.91907389 13 15 C10.1875 14.8125 10.1875 14.8125 7 14 C4.99466598 11.37232094 4.044037 9.13211099 3 6 C2.34 6 1.68 6 1 6 C-1 4 -1 4 -2 2 C-1.34 2 -0.68 2 0 2 C0 1.34 0 0.68 0 0 Z " fill="#556ED9" transform="translate(36,240)"/>
<path d="M0 0 C1.65 0.33 3.3 0.66 5 1 C5 3.31 5 5.62 5 8 C-1.4 7.50769231 -1.4 7.50769231 -4.4375 4.9375 C-5.2109375 3.9784375 -5.2109375 3.9784375 -6 3 C-5.236875 3.309375 -4.47375 3.61875 -3.6875 3.9375 C-1.81210323 4.67893593 0.08684652 5.36228217 2 6 C2 4.68 2 3.36 2 2 C1.34 2 0.68 2 0 2 C0 1.34 0 0.68 0 0 Z " fill="#667ADF" transform="translate(415,231)"/>
<path d="M0 0 C1.98 0 3.96 0 6 0 C7.97094808 4.92737019 8.1799928 8.78020872 8 14 C6.83693135 11.6738627 5.68642074 9.34557372 4.5625 7 C3.21896787 4.4204183 1.8208808 2.25442385 0 0 Z " fill="#5A6FE0" transform="translate(221,210)"/>
<path d="M0 0 C0.66 0.33 1.32 0.66 2 1 C0.87616008 2.93817313 -0.24911321 4.87551518 -1.375 6.8125 C-2.31472656 8.43091797 -2.31472656 8.43091797 -3.2734375 10.08203125 C-4.46055346 12.08831093 -5.70689373 14.06034059 -7 16 C-7.33 13.69 -7.66 11.38 -8 9 C-6.68 8.34 -5.36 7.68 -4 7 C-4 6.34 -4 5.68 -4 5 C-3.34 5 -2.68 5 -2 5 C-1.34 3.35 -0.68 1.7 0 0 Z " fill="#6377E8" transform="translate(386,176)"/>
<path d="M0 0 C3 0.25 3 0.25 5 2.25 C4.625 4.375 4.625 4.375 4 6.25 C2.68 5.26 1.36 4.27 0 3.25 C-1.98 4.24 -1.98 4.24 -4 5.25 C-4.33 4.26 -4.66 3.27 -5 2.25 C-3 0.25 -3 0.25 0 0 Z " fill="#5671E7" transform="translate(88,235.75)"/>
<path d="M0 0 C0.33 0 0.66 0 1 0 C1.2295711 3.36704285 1.33943529 5.41370268 -0.375 8.375 C-0.91125 8.91125 -1.4475 9.4475 -2 10 C-2.66 10 -3.32 10 -4 10 C-4.33 10.99 -4.66 11.98 -5 13 C-5.66 13 -6.32 13 -7 13 C-7 13.66 -7 14.32 -7 15 C-7.99 14.67 -8.98 14.34 -10 14 C-8.88625 12.948125 -8.88625 12.948125 -7.75 11.875 C-4.28682569 8.25440867 -1.5921543 4.77646289 0 0 Z " fill="#5C6FDE" transform="translate(366,242)"/>
<path d="M0 0 C0.99 0 1.98 0 3 0 C3 2.64 3 5.28 3 8 C1.741875 8.020625 0.48375 8.04125 -0.8125 8.0625 C-1.52019531 8.07410156 -2.22789062 8.08570313 -2.95703125 8.09765625 C-5 8 -5 8 -8 7 C-7.67 6.34 -7.34 5.68 -7 5 C-4.03 5.495 -4.03 5.495 -1 6 C-0.67 4.02 -0.34 2.04 0 0 Z " fill="#BECAF3" transform="translate(420,232)"/>
<path d="M0 0 C0.33 0 0.66 0 1 0 C1.4992298 6.24037253 1.24142184 10.01009196 -3 15 C-3.99 15.495 -3.99 15.495 -5 16 C-5.33 14.68 -5.66 13.36 -6 12 C-4.68 11.67 -3.36 11.34 -2 11 C-1.34 7.37 -0.68 3.74 0 0 Z " fill="#576EDD" transform="translate(145,229)"/>
<path d="M0 0 C0.268125 0.598125 0.53625 1.19625 0.8125 1.8125 C1.98493467 3.97224808 3.19369282 5.35790256 5 7 C4.34 7 3.68 7 3 7 C3 10.3 3 13.6 3 17 C2.67 17 2.34 17 2 17 C1.47226657 14.35536978 0.95252743 11.70960607 0.4375 9.0625 C0.21030273 7.93038086 0.21030273 7.93038086 -0.02148438 6.77539062 C-0.39117799 4.85814233 -0.70042238 2.9294475 -1 1 C-0.67 0.67 -0.34 0.34 0 0 Z " fill="#566FE3" transform="translate(162,219)"/>
<path d="M0 0 C1.43088528 2.86177057 0.59991697 4.93375773 0 8 C-4.455 8.495 -4.455 8.495 -9 9 C-8.2575 8.443125 -7.515 7.88625 -6.75 7.3125 C-4.08292005 5.06972822 -2.08443768 2.77925025 0 0 Z " fill="#5970E4" transform="translate(159,248)"/>
<path d="M0 0 C0.625 1.875 0.625 1.875 1 4 C0.34 4.66 -0.32 5.32 -1 6 C-1.99 6 -2.98 6 -4 6 C-4.28875 6.598125 -4.5775 7.19625 -4.875 7.8125 C-6 10 -6 10 -8 13 C-8.66 12.67 -9.32 12.34 -10 12 C-8.70984254 10.37380152 -7.41782303 8.74908017 -6.125 7.125 C-5.04605469 5.76761719 -5.04605469 5.76761719 -3.9453125 4.3828125 C-2 2 -2 2 0 0 Z " fill="#6175E0" transform="translate(37,158)"/>
<path d="M0 0 C1.98 0.99 1.98 0.99 4 2 C3.71890887 3.64767247 3.42481474 5.29313145 3.125 6.9375 C2.96257812 7.85402344 2.80015625 8.77054688 2.6328125 9.71484375 C2.42398437 10.46894531 2.21515625 11.22304687 2 12 C1.01 12.495 1.01 12.495 0 13 C0 8.71 0 4.42 0 0 Z " fill="#B5C2F5" transform="translate(407,234)"/>
<path d="M0 0 C0.77085937 0.02835938 1.54171875 0.05671875 2.3359375 0.0859375 C3.49996094 0.10527344 3.49996094 0.10527344 4.6875 0.125 C6.7109375 0.4609375 6.7109375 0.4609375 8.7109375 2.4609375 C3.7609375 3.1209375 -1.1890625 3.7809375 -6.2890625 4.4609375 C-2.2890625 0.4609375 -2.2890625 0.4609375 0 0 Z " fill="#6275DE" transform="translate(447.2890625,218.5390625)"/>
<path d="M0 0 C3.3 0 6.6 0 10 0 C10.33 1.32 10.66 2.64 11 4 C7.04 4 3.08 4 -1 4 C-0.67 2.68 -0.34 1.36 0 0 Z " fill="#BECFF9" transform="translate(445,216)"/>
<path d="M0 0 C4.13639336 1.59092052 7.23213248 4.60474918 10 8 C10 8.66 10 9.32 10 10 C9.01 9.67 8.02 9.34 7 9 C7 8.34 7 7.68 7 7 C6.01 7 5.02 7 4 7 C3.67 5.68 3.34 4.36 3 3 C2.01 3 1.02 3 0 3 C0 2.01 0 1.02 0 0 Z " fill="#5A73E0" transform="translate(457,154)"/>
<path d="M0 0 C-0.57344937 2.86724686 -0.8614515 3.8614515 -3 6 C-3.46162427 8.43252661 -3.46162427 8.43252661 -3.625 11.125 C-3.69976562 12.03507813 -3.77453125 12.94515625 -3.8515625 13.8828125 C-3.90054688 14.58148438 -3.94953125 15.28015625 -4 16 C-4.33 16 -4.66 16 -5 16 C-5.08133791 14.08404032 -5.13934367 12.16708068 -5.1875 10.25 C-5.22230469 9.18265625 -5.25710937 8.1153125 -5.29296875 7.015625 C-4.94860213 3.47094463 -4.06391445 0 0 0 Z " fill="#5770E3" transform="translate(129,222)"/>
<path d="M0 0 C0.66 0.33 1.32 0.66 2 1 C2 3.64 2 6.28 2 9 C0.35 9.66 -1.3 10.32 -3 11 C-2.01 7.37 -1.02 3.74 0 0 Z " fill="#5673E0" transform="translate(163,237)"/>
<path d="M0 0 C1.98 0.99 1.98 0.99 4 2 C3.34 5.3 2.68 8.6 2 12 C-0.35333796 7.29332409 -0.17102038 5.1306114 0 0 Z " fill="#5673E7" transform="translate(52,222)"/>
<path d="M0 0 C2.31 0.66 4.62 1.32 7 2 C7 2.99 7 3.98 7 5 C7.66 5 8.32 5 9 5 C8.67 6.32 8.34 7.64 8 9 C7.236875 8.071875 6.47375 7.14375 5.6875 6.1875 C3.88151448 4.01723899 2.0523371 1.94431935 0 0 Z " fill="#677CEA" transform="translate(453,170)"/>
<path d="M0 0 C3.64553172 1.2808625 5.16671013 2.16671013 8 5 C5.03 5 2.06 5 -1 5 C-0.67 3.35 -0.34 1.7 0 0 Z " fill="#5A71E9" transform="translate(443,144)"/>
<path d="M0 0 C0.78375 0.04125 1.5675 0.0825 2.375 0.125 C1.39933888 1.29459987 0.419375 2.46061177 -0.5625 3.625 C-1.10777344 4.2746875 -1.65304687 4.924375 -2.21484375 5.59375 C-2.68019531 6.0990625 -3.14554687 6.604375 -3.625 7.125 C-3.955 7.125 -4.285 7.125 -4.625 7.125 C-4.75 4.75 -4.75 4.75 -4.625 2.125 C-2.625 0.125 -2.625 0.125 0 0 Z " fill="#CED5EC" transform="translate(440.625,219.875)"/>
<path d="M0 0 C3.3 0 6.6 0 10 0 C10.33 1.32 10.66 2.64 11 4 C7.37 3.67 3.74 3.34 0 3 C0 2.01 0 1.02 0 0 Z " fill="#BECEFC" transform="translate(393,216)"/>
<path d="M0 0 C-1.70536426 0.73564733 -3.41132671 1.46995679 -5.12109375 2.1953125 C-6.67291102 2.85991616 -8.21316903 3.55144047 -9.75 4.25 C-12 5 -12 5 -15 4 C-13.25705322 3.13153169 -11.50531337 2.28069373 -9.75 1.4375 C-8.77546875 0.96183594 -7.8009375 0.48617187 -6.796875 -0.00390625 C-3.90143703 -1.03510273 -2.80033839 -1.11346788 0 0 Z " fill="#6075DE" transform="translate(76,137)"/>
<path d="M0 0 C0 2 0 2 -1.5625 4.0625 C-4.66513386 6.52869615 -7.10546216 6.70042017 -11 7 C-9.33784732 5.66104368 -7.67036393 4.32869858 -6 3 C-5.278125 2.4225 -4.55625 1.845 -3.8125 1.25 C-2 0 -2 0 0 0 Z " fill="#657BE6" transform="translate(455,277)"/>
<path d="M0 0 C2.9262753 1.31177858 4.75289234 2.75289234 7 5 C9.09989652 6.17574711 9.09989652 6.17574711 11 7 C10.67 7.99 10.34 8.98 10 10 C8.33037631 8.52417192 6.6643694 7.04425109 5 5.5625 C4.071875 4.73878906 3.14375 3.91507812 2.1875 3.06640625 C1.465625 2.38449219 0.74375 1.70257813 0 1 C0 0.67 0 0.34 0 0 Z " fill="#CAD2F5" transform="translate(388,271)"/>
<path d="M0 0 C0.66 0 1.32 0 2 0 C2.6509259 1.24735567 3.29551669 2.49801832 3.9375 3.75 C4.29714844 4.44609375 4.65679687 5.1421875 5.02734375 5.859375 C5.95558182 7.90224433 6.53166578 9.81115376 7 12 C3.66488612 9.0098979 1.78478881 6.10501426 0 2 C0 1.34 0 0.68 0 0 Z " fill="#C9D3F4" transform="translate(381,259)"/>
<path d="M0 0 C0.66 0.33 1.32 0.66 2 1 C-0.64 4.3 -3.28 7.6 -6 11 C-6.33 10.01 -6.66 9.02 -7 8 C-6.01 7.67 -5.02 7.34 -4 7 C-4 6.01 -4 5.02 -4 4 C-2 1.8125 -2 1.8125 0 0 Z " fill="#5E74D5" transform="translate(471,277)"/>
<path d="M0 0 C4.85963179 0.60745397 8.7405518 2.72758967 13 5 C9.5945335 6.1351555 8.68276913 5.84899821 5.375 4.75 C4.57835937 4.49734375 3.78171875 4.2446875 2.9609375 3.984375 C1 3 1 3 0 0 Z " fill="#5A72DA" transform="translate(430,138)"/>
<path d="M0 0 C1.98 0 3.96 0 6 0 C5.67 0.99 5.34 1.98 5 3 C6.65 3.33 8.3 3.66 10 4 C8.375 4.75 8.375 4.75 6 5 C2.75 3.125 2.75 3.125 0 1 C0 0.67 0 0.34 0 0 Z " fill="#5971E0" transform="translate(58,240)"/>
<path d="M0 0 C0.66 0.33 1.32 0.66 2 1 C3.87056791 1.2275015 5.74685958 1.40962811 7.625 1.5625 C8.62789062 1.64628906 9.63078125 1.73007813 10.6640625 1.81640625 C11.43492187 1.87699219 12.20578125 1.93757812 13 2 C13 2.33 13 2.66 13 3 C8.38 3 3.76 3 -1 3 C-1.33 2.34 -1.66 1.68 -2 1 C-1.34 0.67 -0.68 0.34 0 0 Z " fill="#5771EB" transform="translate(127,203)"/>
<path d="M0 0 C2.475 0.99 2.475 0.99 5 2 C5 2.99 5 3.98 5 5 C2.525 4.01 2.525 4.01 0 3 C0 2.01 0 1.02 0 0 Z " fill="#5970EA" transform="translate(49,297)"/>
<path d="M0 0 C2.475 0.495 2.475 0.495 5 1 C5.66 2.98 6.32 4.96 7 7 C5.83040013 6.02433888 4.66438823 5.044375 3.5 4.0625 C2.8503125 3.51722656 2.200625 2.97195313 1.53125 2.41015625 C1.0259375 1.94480469 0.520625 1.47945313 0 1 C0 0.67 0 0.34 0 0 Z " fill="#5D71DF" transform="translate(33,285)"/>
<path d="M0 0 C2.76276177 0.52268466 5.3260876 1.10869587 8 2 C8.33 2.99 8.66 3.98 9 5 C5.22454612 3.90931332 2.52956528 3.0916909 0 0 Z " fill="#5A76E9" transform="translate(439,161)"/>
<path d="M0 0 C0.66 0.33 1.32 0.66 2 1 C-0.31 2.65 -2.62 4.3 -5 6 C-5 4.68 -5 3.36 -5 2 C-2.625 0.9375 -2.625 0.9375 0 0 Z " fill="#5971DF" transform="translate(454,295)"/>
<path d="M0 0 C1.32 0.33 2.64 0.66 4 1 C2.35 2.65 0.7 4.3 -1 6 C-1.66 5.67 -2.32 5.34 -3 5 C-3 4.34 -3 3.68 -3 3 C-2.01 3 -1.02 3 0 3 C0 2.01 0 1.02 0 0 Z " fill="#5973DF" transform="translate(460,288)"/>
<path d="M0 0 C3.73487777 0.4979837 5.81237635 0.87491756 9 3 C8.34 3 7.68 3 7 3 C6.67 3.66 6.34 4.32 6 5 C3.98079663 3.69593116 1.98075027 2.36176581 0 1 C0 0.67 0 0.34 0 0 Z " fill="#596FE9" transform="translate(354,209)"/>
<path d="M0 0 C5.57142857 5.14285714 5.57142857 5.14285714 6 9 C1.3125 5.484375 1.3125 5.484375 0 4 C0 2.68 0 1.36 0 0 Z " fill="#C7D3EF" transform="translate(459,177)"/>
</svg>
